<svg id="visual" viewBox="0 0 900 600" width="900" height="600" xmlns="http://www.w3.org/2000/svg" xmlns:xlink="http://www.w3.org/1999/xlink" version="1.1"><rect x="0" y="0" width="900" height="600" fill="#fff"></rect><defs><linearGradient id="grad1_0" x1="33.3%" y1="0%" x2="100%" y2="100%"><stop offset="20%" stop-color="#ffffff" stop-opacity="1"></stop><stop offset="80%" stop-color="#ffffff" stop-opacity="1"></stop></linearGradient></defs><defs><linearGradient id="grad2_0" x1="0%" y1="0%" x2="66.7%" y2="100%"><stop offset="20%" stop-color="#ffffff" stop-opacity="1"></stop><stop offset="80%" stop-color="#ffffff" stop-opacity="1"></stop></linearGradient></defs><g transform="translate(900, 0)"><path d="M0 189.3C-20.4 188.5 -40.9 187.7 -58.5 180C-76.1 172.4 -90.9 157.9 -105.2 144.8C-119.6 131.7 -133.5 120 -145.6 105.8C-157.7 91.6 -168 74.9 -175 56.9C-182 38.8 -185.6 19.4 -189.3 0L0 0Z" fill="#8B0000"></path></g><g transform="translate(0, 600)"><path d="M0 -189.3C19 -184.5 38 -179.6 56.6 -174C75.1 -168.5 93.3 -162.1 110.5 -152.1C127.7 -142 144 -128.3 153.1 -111.3C162.3 -94.3 164.4 -74.1 169.3 -55C174.1 -35.9 181.7 -18 189.3 0L0 0Z" fill="#8B0000"></path></g></svg>