 <svg  version="1.0" xmlns="http://www.w3.org/2000/svg"  width="300.000000pt" height="238.000000pt" viewBox="0 0 300.000000 238.000000"  preserveAspectRatio="xMidYMid meet">  <g transform="translate(0.000000,238.000000) scale(0.050000,-0.050000)" fill="#800020" stroke="none"> <path d="M2824 4083 c-20 -13 -20 -40 4 -140 l29 -124 -64 12 c-151 28 -237 -168 -124 -282 55 -55 152 -66 190 -20 16 19 46 24 95 16 68 -11 71 -9 60 37 -6 26 -32 154 -57 283 -46 238 -61 263 -133 218z m35 -352 c13 -16 21 -50 18 -75 -9 -63 -105 -76 -136 -17 -46 84 58 165 118 92z"/> <path d="M2251 3858 c-76 -32 -141 -62 -145 -66 -9 -8 154 -413 176 -439 25 -30 298 88 298 129 0 57 -34 63 -132 26 -78 -30 -94 -31 -109 -6 -34 52 -19 75 71 109 100 38 98 36 70 89 -20 38 -23 38 -113 -1 -103 -44 -100 -45 -110 10 -5 30 13 46 83 73 50 18 89 43 88 56 -9 99 6 98 -177 20z"/> <path d="M3129 3851 c-122 -122 -4 -322 157 -266 70 24 78 16 48 -45 -30 -60 -79 -73 -120 -31 -48 48 -133 41 -120 -10 24 -88 163 -127 275 -76 66 30 77 70 79 292 l2 185 -55 0 c-30 0 -55 -9 -55 -21 0 -14 -12 -14 -39 0 -62 34 -119 24 -172 -28z m190 -60 c45 -54 18 -121 -49 -121 -47 0 -61 10 -67 46 -7 51 27 104 67 104 14 0 36 -13 49 -29z"/> <path d="M3647 3860 c-57 -23 -107 -97 -107 -160 0 -125 168 -219 271 -151 70 45 37 80 -69 74 -54 -3 -81 5 -89 26 -14 36 35 40 151 13 88 -20 106 4 72 100 -30 88 -139 134 -229 98z m114 -81 c61 -32 46 -59 -26 -46 -82 16 -91 24 -54 48 36 23 34 23 80 -2z"/> <path d="M1915 3497 c-117 -71 -132 -86 -114 -119 25 -46 46 -47 109 -6 l48 31 -12 -143 -12 -142 133 83 c146 92 142 86 112 141 -21 39 -22 39 -83 -5 l-62 -44 14 144 c8 78 12 143 8 142 -3 0 -67 -37 -141 -82z"/> <path d="M1520 3430 c-32 -39 -11 -90 37 -90 50 0 87 46 71 87 -15 41 -75 43 -108 3z"/> <path d="M3547 3342 c-695 -240 -1082 -873 -839 -1369 149 -306 597 -373 590 -89 -1 68 -6 63 -26 -26 -37 -167 -314 -107 -416 89 -167 322 106 765 553 897 l142 41 86 250 c102 295 110 277 -90 207z"/> <path d="M1644 3306 l-43 -36 98 -120 c101 -125 133 -142 167 -88 18 29 -6 67 -176 274 -2 3 -23 -11 -46 -30z"/> <path d="M1229 3137 c-126 -119 -133 -95 96 -302 l160 -144 98 106 c146 159 124 303 -47 303 -42 0 -56 10 -56 39 0 128 -115 127 -251 -2z m167 -69 c10 -67 -48 -102 -97 -58 -37 34 -37 39 -5 74 42 47 94 39 102 -16z m161 -114 c14 -76 -57 -121 -110 -71 -44 42 -45 46 -13 81 41 46 113 40 123 -10z"/> <path d="M2167 2947 c-151 -656 139 -1285 656 -1420 261 -69 527 64 551 274 11 98 -45 200 -110 198 -28 0 -27 -4 6 -23 127 -72 85 -244 -78 -318 -401 -182 -837 425 -662 922 17 47 30 92 30 101 0 13 -233 293 -330 396 -22 23 -33 0 -63 -130z"/> <path d="M3397 2683 c-386 -127 -596 -496 -435 -761 65 -107 235 -147 285 -67 15 25 -22 77 -41 57 -9 -10 -5 -22 9 -26 43 -16 5 -46 -57 -46 -187 0 -228 281 -66 459 234 260 697 224 1010 -77 l106 -102 207 40 c114 22 229 40 256 40 73 0 61 24 -70 146 -342 317 -842 457 -1204 337z"/> <path d="M3311 2331 c-215 -80 -329 -302 -215 -416 49 -49 94 -31 63 26 -69 129 156 210 304 110 390 -265 57 -935 -526 -1060 -47 -9 -61 -32 -108 -176 -31 -91 -71 -203 -91 -250 -54 -126 80 -102 425 78 654 340 859 1217 344 1469 -202 99 -450 -17 -367 -171 15 -29 15 -41 0 -41 -90 0 -44 208 63 286 372 272 837 -310 706 -886 l-32 -138 177 -204 176 -204 27 108 c204 825 -353 1690 -946 1469z"/> <path d="M3225 2040 c-25 -10 -45 -30 -45 -43 0 -20 5 -20 24 -1 85 85 236 -35 236 -188 0 -462 -672 -565 -1105 -169 l-111 102 -253 -47 c-303 -55 -301 -49 -90 -220 579 -469 1341 -444 1588 51 134 270 -24 605 -244 515z"/> </g> </svg> 