<svg id="visual" viewBox="0 0 960 540" width="960" height="540" xmlns="http://www.w3.org/2000/svg" xmlns:xlink="http://www.w3.org/1999/xlink" version="1.1"><path d="M777 540L748 540L748 450L777 450L777 360L873 360L873 270L729 270L729 180L719 180L719 90L882 90L882 0L960 0L960 90L960 90L960 180L960 180L960 270L960 270L960 360L960 360L960 450L960 450L960 540L960 540Z" fill="#46235c"></path><path d="M479 540L412 540L412 450L498 450L498 360L556 360L556 270L431 270L431 180L441 180L441 90L690 90L690 0L883 0L883 90L720 90L720 180L730 180L730 270L874 270L874 360L778 360L778 450L749 450L749 540L778 540Z" fill="#684e75"></path><path d="M249 540L162 540L162 450L114 450L114 360L335 360L335 270L114 270L114 180L181 180L181 90L162 90L162 0L691 0L691 90L442 90L442 180L432 180L432 270L557 270L557 360L499 360L499 450L413 450L413 540L480 540Z" fill="#887a8f"></path><path d="M0 540L0 540L0 450L0 450L0 360L0 360L0 270L0 270L0 180L0 180L0 90L0 90L0 0L163 0L163 90L182 90L182 180L115 180L115 270L336 270L336 360L115 360L115 450L163 450L163 540L250 540Z" fill="#a9a9a9"></path></svg>